# xmcd
#
# Track frame offsets:
#  150
#  17921
#  34125
#  47915
#  63608
#  83374
#  103060
#  121410
#  134773
#  156494
#  172696
#  194252
#  206753
#  222649
#  236523
#  252327
#  263068
#  281831
#  301943
#  317792
#
# Disc length: 4402 seconds
#
# Revision: 0
# Processed by: cddbd v1.4PL0 Copyright (c) Steve Scherf et al.
# Submitted via: AltoMP3_Maker 3.0
#
DISCID=2d113014
DTITLE=Shania Twain - Millenium Collection
DYEAR=1900
DGENRE=
TTITLE0=Man! I Feel Like A Woman! (Alternate Mix)
TTITLE1=That Don't Impress Me Much
TTITLE2=No One Needs To Know
TTITLE3=You're Still The One
TTITLE4=You Win My Love
TTITLE5=Whose Bed Have Your Boots Been Under?
TTITLE6=Any Man Of Mine
TTITLE7=What Made You Say That
TTITLE8=From This Moment On
TTITLE9=When
TTITLE10=The Woman In Me (Needs The Man In You)
TTITLE11=You Lay A Whole Lot Of Love On Me
TTITLE12=Don't Be Stupid (You Know I Love You)
TTITLE13=Still Under The Weather
TTITLE14=Love Gets Me Very Time
TTITLE15=Dance With the One That Brought You
TTITLE16=Home Ain't Where His Heart Is (Anymore)
TTITLE17=(If You're Not In It for Love) I'm Outta Here
TTITLE18=Honey I'm Home
TTITLE19=God Ain't Gonna Get Cha For That
EXTD=
EXTT0=
EXTT1=
EXTT2=
EXTT3=
EXTT4=
EXTT5=
EXTT6=
EXTT7=
EXTT8=
EXTT9=
EXTT10=
EXTT11=
EXTT12=
EXTT13=
EXTT14=
EXTT15=
EXTT16=
EXTT17=
EXTT18=
EXTT19=
PLAYORDER=
